<?xml version="1.0" encoding="iso-8859-1"?>
<!-- Generator: Adobe Illustrator 19.0.0, SVG Export Plug-In . SVG Version: 6.00 Build 0)  -->
<svg width="156px" version="1.1" id="Capa_1" xmlns="http://www.w3.org/2000/svg" xmlns:xlink="http://www.w3.org/1999/xlink" x="0px" y="0px"
	 viewBox="0 0 512 512" style="enable-background:new 0 0 512 512;" xml:space="preserve">
<path style="fill:#EEBF00;" d="M435.744,334.243c-3.648,123.03-144.943,220.347-256.343,158.727
	c-32.614-18.036-55.994-36.18-74.569-69.484c-16.98-30.427-27-64.808-28.67-99.63c-0.312-6.518,7.887-9.643,11.981-4.568
	c11.272,14.056,25.127,26.608,40.468,36.643c4.127,2.683,9.18-1.756,7.003-6.174c-16.582-33.681-48.732-117.462,3.534-180.017
	c4.482-5.355,13.231-2.069,13.08,4.913c-0.399,18.338,3.696,45.511,26.44,67.587c0,0-3.933-153.265,120.877-239.459
	c11.27-7.779,26.376,1.853,24.21,15.375c-9.32,58.149-19.254,178.53,38.594,258.508c3.437,4.751,10.149,5.764,14.793,2.187
	c11.136-8.588,21.362-23.037,27.054-44.39c0.011-0.011,0.011-0.022,0.011-0.022c2.754-10.259,1.77-11.997,4.611-14.061
	c0-0.011,0-0.011,0-0.011c3.071-2.23,8.124-1.261,9.395,3.222C423.589,244.698,437.154,287.162,435.744,334.243z"/>
<path style="fill:#FFD422;" d="M429.14,375.648c-8.916,23.608-23.003,45.711-41.201,64.667
	c-52.934,38.292-122.989,51.027-185.027,16.711c-34.09-18.855-58.537-37.829-77.963-72.641
	c-8.501-15.235-15.321-31.159-20.525-47.515c7.488,7.057,15.59,13.436,24.188,19.06c4.127,2.683,9.18-1.756,7.003-6.174
	c-16.582-33.681-48.732-117.462,3.534-180.017c4.482-5.355,13.231-2.069,13.08,4.913c-0.399,18.338,3.696,45.511,26.44,67.587
	c0,0-3.933-153.265,120.877-239.459c11.27-7.779,26.376,1.853,24.21,15.375c-9.32,58.149-19.254,178.53,38.594,258.508
	c3.437,4.751,10.149,5.764,14.793,2.187c11.144-8.594,21.363-23.039,27.054-44.39c0.011-0.011,0.011-0.022,0.011-0.022
	c2.931-7.18,4.276-12.928,4.611-14.071c3.071-2.23,8.124-1.261,9.395,3.222l0.086,0.312
	C432.398,273.395,443.407,326.776,429.14,375.648z"/>
<path style="fill:#CC7400;" d="M343.387,393.835c0,0.011,0,0.022-0.011,0.022c-1.314,10.591-4.773,20.223-9.783,28.52
	c-0.937,1.562-1.939,3.081-2.984,4.547c-2.004,2.812-4.191,5.43-6.54,7.854c-36.191,37.365-95.924,39.38-133.3,3.2
	c0,0-35.512-29.856-20.73-101.688c1.164-5.678,7.424-8.706,12.617-6.109c0.032,0.022,0.075,0.032,0.108,0.054
	c1.39,0.69,2.823,1.411,4.277,2.166c0.453,0.237,0.916,0.474,1.379,0.711c15.547,8.135,33.734,19.545,42.634,35.06
	c-8.081-18.887-28.304-87.186,34.801-203.969c3.803-7.014,14.384-4.762,14.955,3.2c2.737,37.549,12.606,106.914,47.838,165.72
	C341.705,354.897,345.66,375.756,343.387,393.835z"/>
<path style="fill:#EE8700;" d="M343.387,393.835c0,0.011,0,0.022-0.011,0.022c-1.778,6.411-4.374,12.358-7.628,17.745
	c-36.45,28.272-89.039,27-123.064-5.947c0,0-25.794-21.689-24.264-72.543c15.547,8.135,33.734,19.545,42.634,35.06
	c-8.081-18.887-28.304-87.186,34.801-203.969c3.803-7.014,14.384-4.762,14.955,3.2c2.737,37.549,12.606,106.914,47.838,165.72
	C341.705,354.897,345.66,375.756,343.387,393.835z"/>
</svg>
