<svg xmlns="http://www.w3.org/2000/svg" version="1.1" viewBox="0 0 512 512">
  <path fill="#eebf00" d="M436 334c-4 123-145 221-257 159-32-18-56-36-74-70-17-30-27-64-29-99 0-7 8-10 12-5 11 14 25 27 41 37 4 3 9-2 7-6-17-34-49-118 3-180 5-6 13-2 13 5 0 18 4 45 27 67 0 0-4-153 121-239 11-8 26 2 24 15-10 58-19 179 38 259 4 4 10 5 15 2 11-9 22-23 27-45 3-10 2-12 5-14s8-1 9 4c6 21 19 63 18 110z"/>
  <path fill="#ffd422" d="M429 376c-9 23-23 45-41 64-53 39-123 51-185 17-34-19-59-38-78-73-9-15-15-31-21-47l25 19c4 3 9-2 7-6-17-34-49-118 3-180 5-6 13-2 13 5 0 18 4 45 27 67 0 0-4-153 121-239 11-8 26 2 24 15-10 58-19 179 38 259 4 4 10 5 15 2 11-9 22-23 27-45l5-14c3-2 8-1 9 4 14 49 25 103 11 152z"/>
  <path fill="#cc7400" d="M343 394a72 72 0 0 1-19 41 94 94 0 0 1-133 3s-36-30-21-102c1-5 7-8 13-6l4 2 1 1c16 8 34 20 43 35-8-19-28-87 35-204 4-7 14-5 15 3 3 38 12 107 48 166 13 22 17 43 14 61z"/>
  <path fill="#ee8700" d="M343 394c-1 6-4 12-7 18a94 94 0 0 1-123-6s-26-22-25-73c16 8 34 20 43 35-8-19-28-87 35-204 4-7 14-5 15 3 3 38 12 107 48 166 13 22 17 43 14 61z"/>
</svg>